<svg xmlns="http://www.w3.org/2000/svg" width="399" height="160" viewBox="0 0 399 160">
  <metadata><?xpacket begin="﻿" id="W5M0MpCehiHzreSzNTczkc9d"?>
<x:xmpmeta xmlns:x="adobe:ns:meta/" x:xmptk="Adobe XMP Core 5.6-c142 79.160924, 2017/07/13-01:06:39        ">
   <rdf:RDF xmlns:rdf="http://www.w3.org/1999/02/22-rdf-syntax-ns#">
      <rdf:Description rdf:about=""/>
   </rdf:RDF>
</x:xmpmeta>
                                                                                                    
                                                                                                    
                                                                                                    
                                                                                                    
                                                                                                    
                                                                                                    
                                                                                                    
                                                                                                    
                                                                                                    
                                                                                                    
                                                                                                    
                                                                                                    
                                                                                                    
                                                                                                    
                                                                                                    
                                                                                                    
                                                                                                    
                                                                                                    
                                                                                                    
                                                                                                    
                           
<?xpacket end="w"?></metadata>
<defs>
    <style>
      .cls-1 {
        fill: #fff;
        fill-rule: evenodd;
      }
    </style>
  </defs>
  <path id="Заливка_цветом_1" data-name="Заливка цветом 1" class="cls-1" d="M289.862,40.312l3.7,0.1h2.8v0.1h0.3v0.1h1.9v0.1h0.4v0.1h0.2v0.1h1.4v0.1h0.3v0.1h0.9v0.1h0.4v0.1h0.3v0.1h0.9v0.1h0.3v0.1h0.6v0.1h0.3v0.1h0.2v0.1h0.4v0.1h0.3v0.1h0.3v0.1h0.3v0.1h0.3v0.1l0.6,0.1v0.1l0.4,0.1v0.1h0.2v0.1h0.3v0.1l0.6,0.2v0.1h0.2v0.1l0.4,0.1v0.1l0.3,0.1c0.034,0.067.067,0.133,0.1,0.2l0.6,0.2,0.1,0.2h0.2c0.033,0.066.066,0.133,0.1,0.2h0.2l0.2,0.3h0.2l0.1,0.2h0.2l0.5,0.6h0.2l0.2,0.3h0.2l0.2,0.3h0.2l0.3,0.4h0.1v0.2l0.3,0.2v0.2l0.2,0.1v0.2l0.7,0.6v0.2l0.2,0.1c0.033,0.133.066,0.266,0.1,0.4l0.2,0.1v0.2l0.2,0.1v0.2l0.2,0.1c0.034,0.1.067,0.2,0.1,0.3h0.1q0.1,0.3.2,0.6h0.1v0.2h0.1v0.2h0.1c0.067,0.2.133,0.4,0.2,0.6h0.1v0.3h0.1v0.2h0.1v0.3h0.1v0.2h0.1q0.049,0.3.1,0.6h0.1v0.2h0.1q0.05,0.3.1,0.6h0.1v0.4h0.1v0.3h0.1v0.3h0.1q0.051,0.349.1,0.7h0.1q0.051,0.5.1,1h0.1v0.3h0.1v0.8h0.1v0.3h0.1v1h0.1v0.4h0.1v0.2h0.1v1.8h0.1v0.4h0.1v4.69h0.1a3.808,3.808,0,0,1,0,1.5h-0.1v4.59h-0.1v0.4h-0.1v1.6h-0.1v0.3h-0.1v0.4h-0.1v1h-0.1v0.3h-0.1v0.7h-0.1v0.4h-0.1v0.4h-0.1v0.5h-0.1v0.3h-0.1v0.5h-0.1v0.3h-0.1v0.3h-0.1v0.3h-0.1v0.3h-0.1v0.2h-0.1q-0.051.3-.1,0.6h-0.1v0.2h-0.1v0.3h-0.1v0.2h-0.1v0.3h-0.1v0.2h-0.1v0.3h-0.1c-0.067.2-.133,0.4-0.2,0.6h-0.1v0.2h-0.1v0.2h-0.1v0.2h-0.1v0.2h-0.1v0.2h-0.1l-0.1.3-0.2.1c-0.034.133-.067,0.266-0.1,0.4l-0.2.1v0.2h-0.1c-0.034.1-.067,0.2-0.1,0.3l-0.2.1v0.2l-0.2.1v0.2l-0.6.5c-0.033.1-.066,0.2-0.1,0.3l-0.2.1v0.2l-0.2.1v0.2l-0.2.1-0.6.7h-0.2l-0.2.3h-0.2c-0.033.067-.066,0.133-0.1,0.2h-0.2l-0.5.6h-0.2c-0.034.067-.067,0.133-0.1,0.2l-0.3.1V90h-0.2l-0.1.2h-0.2v0.1h-0.2v0.1h-0.2v0.1h-0.2v0.1l-0.3.1c-0.034.067-.067,0.133-0.1,0.2l-0.4.1v0.1l-0.4.1v0.1h-0.3v0.1h-0.2v0.1h-0.3v0.1h-0.2v0.1l-0.6.2V92h-0.4v0.1h-0.3v0.1h-0.3v0.1h-0.3v0.1h-0.3v0.1l-0.7.1v0.1l-0.9.1v0.1h-0.4V93h-0.7v0.1h-0.3v0.1h-1.1v0.1h-0.3v0.1h-0.3v0.1h-1.4v0.1h-0.3v0.1h-0.5v0.1h-2.1v0.1h-0.4V94H284.264V93.9h-0.4V93.8h-2.1V93.7h-0.4V93.6h-0.3V93.5h-1.2V93.4h-0.4V93.3h-0.3V93.2h-1.1V93.1h-0.3V93h-0.6V92.9h-0.4V92.8l-0.9-.1-3-1V91.6l-0.6-.2V91.3h-0.2V91.2h-0.3V91.1l-0.6-.2V90.8l-0.4-.1c-0.034-.066-0.067-0.133-0.1-0.2l-0.4-.1-0.1-.2-0.4-.1c-0.033-.067-0.066-0.133-0.1-0.2l-0.4-.1-0.1-.2-0.3-.1-0.2-.3h-0.2l-0.1-.2h-0.2l-0.8-.9-1-.9v-0.2l-0.2-.1v-0.2l-0.3-.2v-0.2l-0.3-.2v-0.2l-0.2-.1v-0.2l-0.2-.1v-0.2l-0.2-.1v-0.2l-0.2-.1c-0.034-.133-0.067-0.266-0.1-0.4l-0.2-.1q-0.1-.3-0.2-0.6h-0.1v-0.2h-0.1c-0.067-.2-0.133-0.4-0.2-0.6h-0.1v-0.3h-0.1c-0.033-.166-0.066-0.333-0.1-0.5h-0.1v-0.2h-0.1c-0.033-.166-0.066-0.333-0.1-0.5h-0.1v-0.2h-0.1v-0.4h-0.1v-0.2h-0.1v-0.4h-0.1v-0.3h-0.1v-0.4h-0.1v-0.3h-0.1v-0.3h-0.1v-0.4h-0.1v-0.5h-0.1v-0.3h-0.1v-0.7h-0.1v-0.3h-0.1v-1h-0.1v-0.4h-0.1v-0.6h-0.1v-1.2h-0.1v-0.3h-0.1v-0.3h-0.1V70.148c-0.607-2.159,0-5.2,0-7.484a6.23,6.23,0,0,1,.1-1.7h0.1v-0.3h0.1c0.019-.057.1-0.9,0.1-0.9a0.173,0.173,0,0,1-.1-0.2h0.1v-0.6h0.1v-0.4h0.1v-1h0.1v-0.3h0.1v-0.7h0.1v-0.3h0.1v-0.5h0.1v-0.3h0.1v-0.3h0.1v-0.4h0.1q0.15-.7.3-1.4h0.1v-0.2h0.1v-0.3h0.1q0.1-.3.2-0.6h0.1v-0.2h0.1v-0.2h0.1v-0.3h0.1c0.067-.2.133-0.4,0.2-0.6h0.1v-0.2h0.1c0.033-.133.066-0.266,0.1-0.4l0.2-.1v-0.2h0.1v-0.2h0.1v-0.2h0.1v-0.2h0.1v-0.2l0.2-.1v-0.2l0.2-.1v-0.2l0.3-.2V48.3l0.3-.2V47.9l0.2-.1V47.6l1.2-1.1,1.1-1.2h0.2c0.033-.066.066-0.133,0.1-0.2h0.2l0.2-.3h0.2l0.2-.3h0.2c0.034-.067.067-0.133,0.1-0.2l0.6-.2V44l0.3-.1c0.033-.067.066-0.133,0.1-0.2l0.6-.2v-0.1h0.2v-0.1h0.2v-0.1l0.6-.2v-0.1h0.3v-0.1h0.2v-0.1h0.3v-0.1l0.4-.1v-0.1l0.7-.1v-0.1h0.3v-0.1h0.3v-0.1h0.3v-0.1h0.3v-0.1h0.3v-0.1h0.3v-0.1h0.5v-0.1h0.3v-0.1h0.8v-0.1h0.3v-0.1h0.4v-0.1h1.1v-0.1l0.8-.1h0.9v-0.1h0.3v-0.1h0.4v-0.1h2.1v-0.1h0.3v-0.1h4.5A1.956,1.956,0,0,0,289.862,40.312ZM44.579,79.228l-0.2.6h-0.1l-0.2.9h-0.1v0.3h-0.1v0.2h-0.1v0.3h-0.1l-0.4,1.7h-0.1v0.3h-0.1v0.3h-0.1v0.3h-0.1v0.3h-0.1v0.3h-0.1l-0.1.6h-0.1v0.4h-0.1v0.3h-0.1v0.3h-0.1v0.4h-0.1v0.2h-0.1l-0.1.6h-0.1v0.3h-0.1v0.3h-0.1v0.3h-0.1v0.3h-0.1v0.3h-0.1v0.3h-0.1v0.4h-0.1l-0.1.6h-0.1v0.3h-0.1v0.3h-0.1v0.3h-0.1v0.3h-0.1v0.3h-0.1v0.3a4.009,4.009,0,0,1-.5.9h-0.2l-0.1.2h-5.7c-0.114-.114,0-0.04-0.2-0.1a1.708,1.708,0,0,1-.2-1.1h0.1l0.1-.6h0.1V91.2h0.1l0.1-.6h0.1V90.3h0.1V90h0.1v-0.3h0.1v-0.3h0.1v-0.3h0.1l0.1-.6h0.1l0.2-.9h0.1v-0.2h0.1v-0.3h0.1v-0.3h0.1v-0.3h0.1v-0.3h0.1v-0.3h0.1v-0.3h0.1l0.1-.6c0.912-2.273,1.6-4.829,2.5-7.085l0.3-1.3h0.1v-0.3h0.1v-0.3h0.1v-0.3h0.1v-0.2h0.1l0.1-.6h0.1l0.2-.9h0.1v-0.3h0.1v-0.3h0.1v-0.3h0.1v-0.3h0.1v-0.2h0.1v-0.3h0.1l0.2-1h0.1v-0.2h0.1l0.1-.6h0.1v-0.2h0.1l0.3-1.3h0.1v-0.3h0.1v-0.3h0.1v-0.3h0.1v-0.3h0.1v-0.3h0.1v-0.2h0.1v-0.3h0.1v-0.3h0.1v-0.3h0.1v-0.3h0.1v-0.3h0.1v-0.4c1.513-3.761,2.6-7.91,4.1-11.675l0.2-.9c0.482-1.21.892-2.612,1.4-3.792l0.1-.7h0.1l0.1-.4h0.1l0.1-.6h0.1l0.2-.6h0.1V46.6h0.1l0.2-.6,0.2-.1V45.7l0.2-.1,0.1-.4,0.2-.1V44.9l0.3-.2V44.5l0.6-.5V43.8l0.7-.6,0.1-.2h0.2l0.4-.5,0.3-.1,0.1-.2,0.4-.1v-0.1h0.2v-0.1l0.6-.2v-0.1h0.3v-0.1h0.3v-0.1l0.7-.1v-0.1h0.5v-0.1l1-.1v-0.1h1.8a5.736,5.736,0,0,1,3,0h1.8v0.1h0.3v0.1h0.7v0.1h0.3v0.1l1.1,0.2v0.1l0.6,0.2v0.1h0.2v0.1h0.2v0.1h0.2v0.1l0.6,0.2,0.2,0.3h0.2l0.7,0.8,0.7,0.6v0.2l0.3,0.2v0.2l0.2,0.1V45l0.3,0.2,0.1,0.4,0.2,0.1v0.2l0.2,0.1,0.1,0.4h0.1l0.2,0.6h0.1v0.3h0.1v0.2h0.1v0.3h0.1V48h0.1l0.2,0.9h0.1v0.2h0.1l0.2,0.9h0.1v0.2h0.1l0.1,0.7h0.1v0.2h0.1v0.3h0.1v0.2h0.1v0.3h0.1l0.1,0.6h0.1v0.3h0.1v0.3h0.1v0.3h0.1v0.4h0.1v0.2h0.1l0.5,1.8h0.1v0.3h0.1v0.2h0.1l0.2,0.9h0.1v0.2h0.1v0.3h0.1v0.3h0.1v0.3h0.1v0.3h0.1v0.3h0.1v0.3h0.1v0.3h0.1v0.3h0.1v0.3h0.1v0.2h0.1l0.1,0.7h0.1v0.2h0.1v0.3h0.1v0.4h0.1l0.1,0.6h0.1v0.2h0.1v0.3h0.1v0.2h0.1l0.1,0.6h0.1v0.3h0.1v0.3h0.1v0.3h0.1v0.3h0.1v0.2h0.1l0.5,1.8c0.662,1.655,1.194,3.477,1.9,5.089v0.3h0.1v0.3h0.1v0.3h0.1l0.1,0.7h0.1l0.2,0.9h0.1v0.2h0.1v0.3h0.1l0.1,0.6h0.1v0.2h0.1v0.3h0.1v0.3h0.1v0.3h0.1v0.3h0.1v0.3h0.1v0.2h0.1v0.3h0.1l0.1,0.6h0.1v0.3h0.1v0.3h0.1v0.3h0.1v0.4h0.1v0.2h0.1l0.5,1.8h0.1v0.3h0.1v0.2h0.1l0.2,0.9h0.1v0.2h0.1v0.3h0.1v0.3h0.1v0.3h0.1v0.3h0.1v0.3h0.1v0.3h0.1v0.3h0.1v0.3h0.1v0.3h0.1v0.2h0.1v0.3h0.1v0.3h0.1v0.3h0.1l0.1,0.7h0.1v0.2h0.1l0.1,0.6h0.1v0.3h0.1v0.2h0.1l0.1,0.6h0.1l0.2,0.9a6.3,6.3,0,0,1,.7,2.1c-0.156.129-.225,0.275-0.4,0.4v0.1h-8.3V93.1h-0.3V93h-0.1l-0.5-.8-0.2-.9h-0.1V91h-0.1V90.7h-0.1V90.4h-0.1V90.1h-0.1V89.9h-0.1v-0.3h-0.1v-0.4h-0.1v-0.3h-0.1v-0.3h-0.1v-0.3h-0.1v-0.3h-0.1l-0.1-.6h-0.1v-0.2h-0.1l-0.3-1.3h-0.1l-0.2-.9h-0.1v-0.2h-0.1l-0.1-.6h-0.1v-0.3h-0.1v-0.3h-0.1v-0.3h-0.1v-0.3h-0.1v-0.3h-0.1l-0.2-.9h-0.1v-0.3h-0.1v-0.2h-0.1l-0.2-.9h-0.1c-0.23-.575-0.167-1.135-0.8-1.3a4.1,4.1,0,0,0-1.9-.2H47.078l-2.2.1-0.1.2h-0.2Zm62.37-38.117h4.2c0.769,0,1.528.01,1.7,0.6a1.666,1.666,0,0,1,.1.9V84.516a11.223,11.223,0,0,0,.2,3.393,1.068,1.068,0,0,1,.2.2h0.2v0.1h23.988c3.24,0,6.719-.047,9.8.1a5.68,5.68,0,0,1,.4.6v0.5a10.54,10.54,0,0,1,.1,2.694h-0.1v0.5h-0.1c-0.159.336,0.01,0.38-.4,0.5a10.23,10.23,0,0,1-2.7.1H108.448a24.519,24.519,0,0,1-3.8-.1c-0.033-.1-0.067-0.2-0.1-0.3-0.376-.385-0.3-2.433-0.3-3.293V47.9a13.815,13.815,0,0,1,.1-3.093q0.1-1.147.2-2.3l0.2-.1v-0.2l0.2-.1,0.4-.5,0.4-.1v-0.1h0.4v-0.1A1.968,1.968,0,0,0,106.949,41.111Zm59.472,0c1.855-.005,3.9.016,5.6,0.1l0.6,0.7c0.287,12.2.1,24.849,0.1,37.219v9.779c0,1.008.2,3.279-.2,3.892l-0.2.1-0.2.3h-7.8c-0.114-.114,0-0.04-0.2-0.1-0.034-.1-0.067-0.2-0.1-0.3-0.45-.459-0.3-2.352-0.3-3.293V47.9a13.7,13.7,0,0,1,.1-3.093V44h0.1c0.178-.631-0.1-1.2.2-1.7l0.2-.1v-0.2l0.9-.6h0.4v-0.1A1.972,1.972,0,0,0,166.421,41.111Zm35.083,0h27.087a9.945,9.945,0,0,1,2.7.2h0.4v0.1h2.4v0.1h0.3v0.1h1v0.1h0.3v0.1h0.3v0.1h0.6v0.1h0.4v0.1h0.3v0.1h0.3v0.1h0.3v0.1l0.6,0.1v0.1l0.4,0.1v0.1h0.3v0.1h0.2v0.1h0.3v0.1h0.2v0.1h0.2c0.034,0.066.067,0.133,0.1,0.2l0.4,0.1,0.1,0.2h0.2l0.1,0.2,0.4,0.1,0.2,0.3h0.2c0.033,0.066.066,0.133,0.1,0.2h0.2l0.3,0.4h0.2l0.4,0.5,0.2,0.1v0.2l0.3,0.2v0.2l0.2,0.1v0.2l0.4,0.3v0.2l0.2,0.1c0.034,0.133.067,0.266,0.1,0.4l0.2,0.1c0.034,0.133.067,0.266,0.1,0.4h0.1v0.2h0.1c0.067,0.2.133,0.4,0.2,0.6h0.1v0.3h0.1v0.2h0.1v0.3h0.1v0.2h0.1q0.1,0.5.2,1h0.1v0.3h0.1v0.4h0.1v0.7h0.1v0.3h0.1v1.5h0.1v0.3h0.1v0.3h0.1v3.592h-0.1v0.3h-0.1v0.4h-0.1v1.5h-0.1v0.4h-0.1v0.8h-0.1v0.3h-0.1q-0.2.9-.4,1.8h-0.1c-0.033.133-.067,0.266-0.1,0.4h-0.1v0.3q-0.35.8-.7,1.6h-0.1c-0.033.1-.066,0.2-0.1,0.3l-0.2.1-0.1.4-0.2.1v0.2h-0.1v0.2l-0.4.3v0.2l-0.2.1v0.2l-1.1,1-0.7.8h-0.2l-0.1.2-0.3.1v0.1l-0.4.1c-0.033.067-.066,0.133-0.1,0.2h-0.2l-0.2.3-0.4.1v0.1l-0.6.2v0.1h-0.3v0.1h-0.3v0.1h-0.2v0.1l-0.4.1v0.1h-0.3v0.1h-0.3v0.1h-0.4v0.1h-0.4v0.1h-0.4v0.1h-0.6v0.1h-0.3v0.1h-0.3v0.1h-1.2v0.1h-0.3v0.1h-0.4v0.1H211.8c-1.409,0-3.428.228-4.5-.2a5.975,5.975,0,0,1-.4-0.6V69.649H207v-0.2h0.1v-0.4h0.1c0.033-.166.067-0.333,0.1-0.5l0.3-.2,0.1-.2h0.2v-0.1a8.172,8.172,0,0,1,2.7-.2h18.692v-0.1h0.3v-0.1h0.3v-0.1h0.6v-0.1h0.3v-0.1l1-.2v-0.1l0.4-.1v-0.1h0.2v-0.1h0.2v-0.1h0.2v-0.1h0.2v-0.1h0.2v-0.1h0.2c0.033-.067.066-0.133,0.1-0.2h0.2l0.6-.7,1-.9v-0.2l0.3-.2v-0.2l0.2-.1q0.1-.3.2-0.6h0.1v-0.2h0.1v-0.2h0.1c0.067-.2.133-0.4,0.2-0.6h0.1v-0.3h0.1v-0.2h0.1c0.067-.333.133-0.665,0.2-1h0.1v-0.6h0.1v-0.4h0.1v-1.6a4.526,4.526,0,0,0,.3-2.594v-0.5h-0.1v-0.3h-0.1l-0.3-2.794h-0.1v-0.2h-0.1c-0.033-.233-0.067-0.466-0.1-0.7h-0.1c-0.067-.2-0.133-0.4-0.2-0.6h-0.1v-0.2h-0.1q-0.1-.3-0.2-0.6l-0.3-.2-0.1-.3h-0.1v-0.2l-0.3-.2v-0.2l-0.4-.3V48.2h-0.2l-0.1-.2-0.3-.1V47.8h-0.2c-0.033-.067-0.066-0.133-0.1-0.2l-0.4-.1V47.4l-0.6-.2V47.1h-0.3V47h-0.2V46.9l-1-.2V46.6h-1.2V46.5h-0.3V46.4h-2.5V46.3h-0.7a11.963,11.963,0,0,0-3-.2H207.9v0.1l-0.9.1v0.1l-0.8.1v0.1H206c-0.034.066-.067,0.133-0.1,0.2h-0.2l-0.8.9v0.8h-0.1V92l-0.3,1a7.8,7.8,0,0,1-2.6.2,35.042,35.042,0,0,1-5.6-.1,6.391,6.391,0,0,1-.4-0.6V46.4h0.1V46.1h0.1v-1h0.1V44.6h0.1V44.3h0.1V44h0.1c0.067-.2.133-0.4,0.2-0.6h0.1v-0.2h0.1c0.033-.133.067-0.266,0.1-0.4l0.6-.5h0.2c0.033-.066.066-0.133,0.1-0.2h0.2v-0.1h0.2v-0.1h0.3v-0.1h0.2v-0.1l0.7-.1v-0.1h0.3v-0.1h1v-0.1h0.3v-0.1h0.4v-0.1Zm131.337,0a48.242,48.242,0,0,1,8,.2c0.152,0.284.463,0.495,0.6,0.8v0.3h0.1v0.3h0.1v0.3h0.1c0.033,0.233.067,0.466,0.1,0.7h0.1v0.4h0.1v0.3h0.1v0.3h0.1V45h0.1v0.3h0.1v0.3h0.1q0.051,0.3.1,0.6h0.1v0.4h0.1v0.3h0.1v0.3h0.1v0.3h0.1v0.3h0.1v0.3h0.1v0.4h0.1v0.3h0.1v0.4h0.1c0.033,0.2.067,0.4,0.1,0.6h0.1v0.3h0.1v0.3h0.1v0.3h0.1v0.3h0.1v0.3h0.1q0.05,0.3.1,0.6h0.1v0.4h0.1v0.3h0.1v0.4h0.1q0.1,0.5.2,1h0.1v0.2h0.1v0.3h0.1v0.3h0.1v0.3h0.1c0.033,0.2.067,0.4,0.1,0.6h0.1v0.4h0.1c0.033,0.233.067,0.466,0.1,0.7h0.1v0.3h0.1v0.3h0.1v0.3h0.1v0.4h0.1v0.2h0.1v0.4h0.1v0.3h0.1v0.3h0.1v0.3h0.1v0.3h0.1v0.3h0.1q0.051,0.3.1,0.6h0.1q0.2,0.9.4,1.8h0.1v0.3h0.1v0.2h0.1c0.033,0.2.067,0.4,0.1,0.6h0.1v0.3h0.1v0.3h0.1v0.3h0.1v0.4h0.1v0.3h0.1v0.4h0.1q0.1,0.5.2,1h0.1v0.3h0.1v0.3h0.1v0.3h0.1v0.2h0.1v0.4h0.1v0.2h0.1v0.4h0.1c0.033,0.233.067,0.466,0.1,0.7h0.1v0.3h0.1v0.3h0.1v0.3h0.1v0.4h0.1v0.2h0.1v0.4h0.1v0.3h0.1v0.3h0.1v0.3h0.1v0.3h0.1v0.4h0.1v0.2h0.1v0.4h0.1v0.3h0.1v0.3h0.1v0.4h0.1c0.033,0.233.067,0.466,0.1,0.7h0.1v0.3h0.1v0.3h0.1v0.3h0.1v0.2h0.1v0.4h0.1v0.3h0.1v0.2h0.1v0.4h0.1v0.3h0.1v0.4h0.1c0.066,0.333.133,0.665,0.2,1h0.1v0.3h0.1v0.3h0.1v0.3h0.1v0.3h0.1v0.3h0.1q0.051,0.349.1,0.7h0.1v0.2h0.1v0.3l0.2,0.1v0.2h0.1v0.2h0.1v0.2h0.1v0.2h0.1v0.2h0.1v0.2h0.1c0.033,0.1.066,0.2,0.1,0.3l0.2,0.1v0.2l0.5,0.4,0.4,0.5h0.2l0.1,0.2,0.4,0.1c0.033,0.067.066,0.133,0.1,0.2l0.5,0.1v0.1h0.3v0.1h0.2v0.1a7.058,7.058,0,0,0,2.9,0l0.6-1v-0.3h0.1v-0.3h0.1v-0.3h0.1v-0.3h0.1v-0.4h0.1v-0.3h0.1v-0.3h0.1v-0.3h0.1v-0.3h0.1v-0.2h0.1v-0.3h0.1v-0.3h0.1v-0.3h0.1v-0.3h0.1v-0.4h0.1q0.1-.449.2-0.9h0.1v-0.3h0.1v-0.2h0.1q0.05-.3.1-0.6h0.1l0.1-.7h0.1v-0.3h0.1v-0.3h0.1v-0.3h0.1v-0.3h0.1v-0.3c0.65-1.481,1.095-3.265,1.7-4.79l0.3-1.3h0.1v-0.2h0.1v-0.3h0.1v-0.3h0.1v-0.3h0.1v-0.3h0.1v-0.4h0.1c0.067-.3.133-0.6,0.2-0.9h0.1v-0.3h0.1v-0.2h0.1q0.1-.449.2-0.9h0.1q0.05-.349.1-0.7h0.1v-0.3h0.1v-0.3h0.1v-0.3h0.1v-0.3h0.1v-0.2h0.1v-0.3h0.1v-0.3h0.1v-0.3h0.1v-0.3h0.1v-0.3h0.1v-0.4h0.1v-0.3h0.1v-0.3h0.1v-0.3h0.1v-0.3h0.1v-0.2h0.1q0.05-.3.1-0.6h0.1v-0.4h0.1v-0.3h0.1v-0.3h0.1v-0.4h0.1q0.051-.3.1-0.6h0.1v-0.2h0.1q0.051-.3.1-0.6h0.1v-0.3h0.1v-0.3h0.1v-0.3h0.1v-0.4h0.1c0.067-.3.133-0.6,0.2-0.9h0.1v-0.2h0.1q0.049-.3.1-0.6h0.1v-0.3h0.1v-0.3h0.1v-0.3h0.1v-0.3h0.1v-0.4h0.1v-0.2h0.1v-0.4h0.1v-0.2h0.1q0.051-.3.1-0.6h0.1v-0.3h0.1v-0.3h0.1v-0.3h0.1v-0.3h0.1v-0.4h0.1v-0.2h0.1v-0.4h0.1v-0.2h0.1q0.05-.3.1-0.6h0.1V47.7h0.1V47.4h0.1V47.1h0.1V46.7h0.1V46.4h0.1V46.1h0.1V45.8h0.1V45.5h0.1V45.3h0.1V45h0.1V44.7h0.1V44.4h0.1V44.1h0.1v-0.4h0.1v-0.3h0.1v-0.3h0.1v-0.3h0.1v-0.3h0.1v-0.2h0.1v-0.3h0.1v-0.2h0.1v-0.2h0.1a0.344,0.344,0,0,1,.3-0.2,2.3,2.3,0,0,1,1.6-.3c1.324,0,3.206-.206,4.2.2a1.335,1.335,0,0,0,.2.2v0.2h0.1a1.5,1.5,0,0,1-.2.9v0.3h-0.1v0.3h-0.1v0.3h-0.1v0.3h-0.1V44h-0.1c-0.033.166-.067,0.333-0.1,0.5h-0.1v0.3h-0.1v0.3h-0.1v0.3h-0.1v0.3h-0.1V46h-0.1v0.3h-0.1v0.3h-0.1q-0.05.3-.1,0.6h-0.1v0.2h-0.1q-0.1.449-.2,0.9h-0.1v0.2h-0.1q-0.1.449-.2,0.9h-0.1v0.3h-0.1v0.3h-0.1v0.3h-0.1v0.2h-0.1c-0.033.2-.067,0.4-0.1,0.6h-0.1q-0.05.3-.1,0.6h-0.1q-0.05.3-.1,0.6h-0.1v0.2h-0.1v0.3h-0.1v0.3h-0.1v0.2h-0.1q-0.051.3-.1,0.6h-0.1v0.3h-0.1v0.3h-0.1v0.3h-0.1v0.3h-0.1c-0.067.3-.133,0.6-0.2,0.9h-0.1v0.2h-0.1c-0.067.3-.133,0.6-0.2,0.9h-0.1v0.2h-0.1v0.3h-0.1v0.3h-0.1v0.3h-0.1v0.3h-0.1v0.3h-0.1v0.2h-0.1l-0.6,2.1h-0.1v0.2h-0.1v0.3h-0.1v0.2h-0.1v0.3h-0.1v0.3h-0.1v0.3h-0.1v0.3h-0.1v0.3h-0.1v0.3h-0.1v0.3h-0.1v0.3h-0.1v0.3h-0.1v0.2h-0.1v0.3h-0.1v0.3h-0.1v0.3h-0.1v0.3h-0.1v0.2h-0.1q-0.1.449-.2,0.9h-0.1v0.2h-0.1v0.3h-0.1v0.3h-0.1v0.3h-0.1v0.3h-0.1v0.4h-0.1v0.2h-0.1q-0.1.449-.2,0.9h-0.1v0.2h-0.1q-0.05.3-.1,0.6h-0.1v0.2h-0.1v0.3h-0.1v0.3h-0.1v0.3h-0.1v0.3h-0.1q-0.1.449-.2,0.9h-0.1v0.2h-0.1c-0.033.233-.067,0.466-0.1,0.7h-0.1v0.2h-0.1c-0.067.3-.133,0.6-0.2,0.9h-0.1v0.2h-0.1q-0.049.3-.1,0.6h-0.1v0.2h-0.1q-0.05.3-.1,0.6h-0.1v0.3h-0.1v0.3h-0.1v0.3h-0.1v0.3h-0.1q-0.1.449-.2,0.9h-0.1v0.2h-0.1v0.3h-0.1v0.2h-0.1l-0.6,2.1h-0.1v0.2h-0.1v0.4h-0.1v0.2h-0.1v0.3h-0.1v0.3h-0.1v0.3h-0.1v0.3h-0.1v0.2h-0.1q-0.051.3-.1,0.6h-0.1v0.2h-0.1v0.3h-0.1v0.3h-0.1v0.3h-0.1v0.3h-0.1c-0.033.233-.067,0.466-0.1,0.7h-0.1v0.2h-0.1q-0.05.3-.1,0.6h-0.1v0.2h-0.1q-0.049.3-.1,0.6h-0.1q-0.05.3-.1,0.6h-0.1v0.2h-0.1v0.3h-0.1v0.3h-0.1v0.3h-0.1v0.3h-0.1v0.2h-0.1v0.4h-0.1v0.3h-0.1c-0.033.2-.067,0.4-0.1,0.6h-0.1v0.2h-0.1v0.3h-0.1v0.3h-0.1v0.2h-0.1v0.2h-0.1c-0.033.1-.066,0.2-0.1,0.3h-0.1V93c-0.5.359-1.779,0.2-2.6,0.2h-6.5c-0.32-.317-0.631-0.053-1.1-0.2V92.9h-0.3V92.8l-1-.2V92.5h-0.2V92.4h-0.2V92.3h-0.2V92.2h-0.2V92.1h-0.2V92h-0.2V91.9h-0.2l-0.3-.4-0.3-.1-0.5-.6-0.4-.3V90.3l-0.6-.5v-0.2l-0.2-.1c-0.034-.1-0.067-0.2-0.1-0.3h-0.1v-0.2l-0.2-.1v-0.2h-0.1v-0.2h-0.1v-0.2h-0.1v-0.2h-0.1v-0.2l-0.2-.1v-0.2h-0.1v-0.2h-0.1v-0.3h-0.1v-0.2h-0.1v-0.2h-0.1v-0.2h-0.1q-0.1-.3-0.2-0.6h-0.1v-0.3h-0.1v-0.3h-0.1v-0.3h-0.1v-0.3h-0.1v-0.3h-0.1v-0.3h-0.1v-0.3h-0.1v-0.2h-0.1l-0.3-1.3h-0.1c-0.067-.3-0.133-0.6-0.2-0.9h-0.1v-0.2h-0.1l-0.7-2.495h-0.1v-0.2h-0.1q-0.051-.3-0.1-0.6h-0.1v-0.2h-0.1v-0.4h-0.1v-0.2h-0.1v-0.3h-0.1v-0.4h-0.1v-0.3h-0.1v-0.3h-0.1v-0.3h-0.1v-0.3h-0.1v-0.2h-0.1v-0.3h-0.1v-0.3h-0.1v-0.3h-0.1v-0.3h-0.1v-0.3h-0.1v-0.3h-0.1v-0.3h-0.1v-0.3h-0.1v-0.3h-0.1v-0.2h-0.1q-0.051-.3-0.1-0.6h-0.1q-0.051-.349-0.1-0.7h-0.1v-0.3h-0.1v-0.3h-0.1v-0.3h-0.1v-0.2h-0.1c-0.033-.2-0.067-0.4-0.1-0.6h-0.1v-0.3h-0.1v-0.3h-0.1v-0.3h-0.1v-0.3h-0.1v-0.4h-0.1q-0.05-.3-0.1-0.6h-0.1v-0.2h-0.1q-0.051-.3-0.1-0.6h-0.1v-0.3h-0.1v-0.3h-0.1v-0.3h-0.1v-0.3h-0.1v-0.3h-0.1v-0.3h-0.1v-0.4h-0.1v-0.2h-0.1v-0.3h-0.1v-0.3h-0.1v-0.3h-0.1v-0.3h-0.1v-0.3h-0.1v-0.3h-0.1v-0.3h-0.1v-0.3h-0.1v-0.3h-0.1l-0.1-.6h-0.1q-0.1-.449-0.2-0.9h-0.1v-0.2h-0.1v-0.3h-0.1v-0.3h-0.1v-0.3h-0.1v-0.3h-0.1v-0.3h-0.1v-0.3h-0.1v-0.3h-0.1c-0.033-.2-0.067-0.4-0.1-0.6-0.949-2.375-1.648-5-2.6-7.384q-0.05-.3-0.1-0.6h-0.1v-0.3h-0.1V48.1h-0.1V47.8h-0.1V47.5h-0.1V47.2h-0.1V46.9h-0.1V46.6h-0.1V46.3h-0.1V46h-0.1V45.7h-0.1V45.4h-0.1V45.1h-0.1c-0.033-.2-0.067-0.4-0.1-0.6h-0.1V44.3h-0.1V44h-0.1q-0.05-.349-0.1-0.7h-0.1v-0.2h-0.1q-0.15-.7-0.3-1.4h0.1v-0.2l0.3-.2v-0.1h0.4v-0.1ZM289.462,45.1c-0.409.349-1.384,0.026-2,.2v0.1h-2.7v0.1h-0.4v0.1h-1.3v0.1h-0.3v0.1h-0.3v0.1h-0.9V46h-0.3v0.1h-0.5v0.1h-0.4v0.1h-0.3v0.1h-0.3v0.1h-0.3v0.1l-0.4.1v0.1h-0.2v0.1h-0.3V47l-0.6.2v0.1l-0.4.1c-0.034.067-.067,0.133-0.1,0.2l-0.4.1c-0.034.066-.067,0.133-0.1,0.2h-0.2V48l-0.3.1-0.1.2h-0.2l-0.7.8h-0.2l-0.5.6-0.2.1v0.2l-0.6.5c-0.033.1-.066,0.2-0.1,0.3l-0.2.1v0.2l-0.2.1-0.1.4-0.2.1c-0.034.1-.067,0.2-0.1,0.3h-0.1v0.2h-0.1v0.2h-0.1v0.2h-0.1v0.2h-0.1v0.2h-0.1v0.2h-0.1c-0.067.2-.133,0.4-0.2,0.6h-0.1q-0.1.449-.2,0.9h-0.1v0.2h-0.1q-0.05.3-.1,0.6h-0.1q-0.15.648-.3,1.3h-0.1v0.7h-0.1v0.3h-0.1v0.4h-0.1v0.9h-0.1v0.4h-0.1v1.4h-0.1v0.3h-0.1v0.4h-0.1v3.991h-0.1v0.7h-0.1a7.42,7.42,0,0,0,.2,2.594v3.892h0.1v0.4h0.1v0.3h0.1v1.4h0.1v0.5h0.1v0.9h0.1v0.4h0.1v0.3h0.1v0.7h0.1v0.3h0.1v0.5h0.1q0.1,0.449.2,0.9h0.1c0.034,0.166.067,0.333,0.1,0.5h0.1v0.2h0.1c0.033,0.2.067,0.4,0.1,0.6h0.1c0.067,0.2.133,0.4,0.2,0.6h0.1v0.2h0.1v0.2h0.1v0.2h0.1v0.2h0.1v0.2h0.1v0.2h0.1v0.2l0.2,0.1v0.2l0.3,0.2a5.063,5.063,0,0,0,.4.7l0.7,0.6v0.2l0.2,0.1,0.3,0.4,0.3,0.1,0.7,0.8h0.2l0.1,0.2h0.2l0.1,0.2h0.2c0.033,0.067.066,0.133,0.1,0.2h0.2c0.033,0.067.066,0.133,0.1,0.2l0.4,0.1c0.034,0.066.067,0.133,0.1,0.2l0.5,0.1v0.1h0.2v0.1l0.6,0.2v0.1l0.6,0.1v0.1h0.3v0.1h0.3v0.1h0.3v0.1h0.5v0.1h0.4v0.1h0.2v0.1h0.9v0.1h0.3v0.1h0.3v0.1h1.4v0.1h0.4v0.1h3.2v0.1h3.4v-0.1h3.1v-0.1h0.4v-0.1h1.4v-0.1h0.4v-0.1h0.3v-0.1h0.8v-0.1h0.3v-0.1h0.4v-0.1h0.5v-0.1h0.3v-0.1h0.3v-0.1h0.3v-0.1h0.3v-0.1h0.2v-0.1h0.3v-0.1l0.6-.2v-0.1h0.2v-0.1h0.2v-0.1h0.2v-0.1l0.6-.2,0.2-.3h0.2c0.034-.066.067-0.133,0.1-0.2l0.4-.1,0.5-.6h0.2c0.033-.067.066-0.133,0.1-0.2h0.2l0.4-.5,0.3-.1v-0.2l0.4-.3v-0.2l0.2-.1v-0.2l0.5-.4v-0.2l0.2-.1c0.033-.133.066-0.266,0.1-0.4l0.2-.1v-0.2l0.2-.1c0.034-.133.067-0.266,0.1-0.4h0.1v-0.2h0.1q0.1-.3.2-0.6h0.1c0.067-.3.133-0.6,0.2-0.9h0.1c0.033-.133.067-0.266,0.1-0.4h0.1c0.033-.2.067-0.4,0.1-0.6h0.1v-0.3h0.1v-0.4h0.1v-0.4h0.1v-0.4h0.1v-0.4h0.1v-0.3h0.1q0.051-.549.1-1.1h0.1v-0.9h0.1v-0.4h0.1v-0.3h0.1v-1.7a19.957,19.957,0,0,0,.3-4.989c0-1.946.148-4.287-.3-5.787v-1.6h-0.1v-0.3h-0.1v-0.4h-0.1v-1h-0.1v-0.3h-0.1v-0.6h-0.1v-0.3h-0.1v-0.5h-0.1v-0.4h-0.1v-0.3h-0.1v-0.4h-0.1v-0.3h-0.1v-0.3h-0.1v-0.3h-0.1v-0.3h-0.1v-0.2h-0.1c-0.033-.2-0.067-0.4-0.1-0.6h-0.1v-0.2h-0.1v-0.3h-0.1q-0.1-.3-0.2-0.6h-0.1c-0.033-.133-0.066-0.266-0.1-0.4l-0.2-.1-0.1-.4-0.2-.1v-0.2l-0.2-.1v-0.2l-0.4-.3v-0.2h-0.1c-0.033-.1-0.067-0.2-0.1-0.3l-0.2-.1v-0.2l-0.3-.2-0.7-.8h-0.2l-0.2-.3h-0.2l-0.1-.2h-0.2l-0.4-.5h-0.2c-0.033-.067-0.066-0.133-0.1-0.2l-0.4-.1c-0.034-.066-0.067-0.133-0.1-0.2l-0.4-.1V47.3h-0.2V47.2l-0.6-.2V46.9h-0.3V46.8h-0.2V46.7l-0.4-.1V46.5h-0.3V46.4h-0.3V46.3l-0.7-.1V46.1l-0.9-.1V45.9h-0.9V45.8h-0.3V45.7h-0.3V45.6h-1.3V45.5h-0.3V45.4h-2.7V45.3h-1.3A5.907,5.907,0,0,0,289.462,45.1ZM57.872,47.9a2.988,2.988,0,0,1-1.2.2v0.1h-0.3v0.1h-0.4v0.1h-0.2v0.1h-0.2l-0.1.2h-0.2l-0.1.2-0.3.1v0.2l-0.3.2-0.1.4-0.2.1-0.1.4h-0.1v0.2h-0.1l-0.2.6h-0.1l-0.1.6h-0.1v0.3h-0.1v0.3h-0.1v0.3h-0.1v0.4h-0.1v0.3h-0.1v0.3h-0.1v0.3h-0.1v0.2h-0.1l-0.2.9h-0.1l-0.4,1.7h-0.1v0.3h-0.1v0.3h-0.1v0.3h-0.1v0.3h-0.1v0.4h-0.1v0.3h-0.1v0.3h-0.1v0.3h-0.1v0.3h-0.1v0.3h-0.1v0.3h-0.1v0.3h-0.1l-0.2.9h-0.1l-0.3,1.3h-0.1v0.4h-0.1v0.3h-0.1v0.3h-0.1v0.3h-0.1v0.3h-0.1l-0.2,1h-0.1v0.3h-0.1l-0.2.9h-0.1v0.2h-0.1l-0.5,2.1h-0.1v0.3h-0.1v0.3h-0.1v0.3h-0.1v0.3h-0.1v0.3h-0.1v0.3h-0.1l-0.1.6h-0.1l-0.1.7h-0.1v0.2h-0.1v0.4h-0.1v0.3h-0.1a4.954,4.954,0,0,0-.3,1.9c1.307,0.7,4.877.4,6.9,0.4H64.369a40.541,40.541,0,0,0,6.4-.2,1.559,1.559,0,0,0,.2-1h-0.1l-0.1-.6h-0.1v-0.3h-0.1v-0.3h-0.1v-0.4h-0.1l-0.1-.6h-0.1l-0.1-.6h-0.1v-0.3h-0.1v-0.3h-0.1v-0.3h-0.1v-0.3h-0.1v-0.3h-0.1l-0.1-.6h-0.1l-0.1-.7c-1.1-3.012-2.093-6.264-3.2-9.28v-0.4h-0.1v-0.2h-0.1l-0.2-.9h-0.1v-0.3h-0.1l-0.2-1h-0.1v-0.3h-0.1v-0.3h-0.1v-0.3h-0.1l-0.1-.6h-0.1l-0.2-.9h-0.1v-0.3h-0.1v-0.3h-0.1v-0.3h-0.1v-0.3h-0.1v-0.3h-0.1v-0.2h-0.1l-0.1-.6h-0.1v-0.2h-0.1v-0.3h-0.1l-0.1-.4h-0.1v-0.2l-0.2-.1v-0.2l-0.2-.1v-0.2l-0.2-.1v-0.2l-0.7-.6-0.1-.2A7.069,7.069,0,0,0,57.872,47.9Zm132.837,80.425c0.156,0.69.383,1.205-.3,1.6v0.1a5.6,5.6,0,0,1-1.7.1v-0.1l-0.4-.1a1.9,1.9,0,0,1-.3-1.2h0.1v-0.2l0.3-.2v-0.1h0.2a1.51,1.51,0,0,1,1.2-.3v0.1l0.6,0.1v0.1Zm-30.086,20.954a0.383,0.383,0,0,0-.2-0.3V140.4a11.122,11.122,0,0,0-.3-3.692h-0.1c-0.067-.2-0.134-0.4-0.2-0.6h-0.1c-0.034-.133-0.067-0.266-0.1-0.4l-0.5-.4-0.3-.4h-0.2v-0.1h-0.2v-0.1h-0.3v-0.1h-0.4v-0.1h-0.2v-0.1h-1.3l-1.1-.1v0.1h-1a7.587,7.587,0,0,0-3,.4,6.119,6.119,0,0,0-.4.6V139.4c0,3.242-.025,6.7-0.1,9.779a2.19,2.19,0,0,0-.5.4,5.519,5.519,0,0,1-2-.2,6.422,6.422,0,0,1-.4-0.6V128.72l0.5-.4v-0.1h0.3a3.119,3.119,0,0,1,1.8.1,1.223,1.223,0,0,1,.3.9,1.968,1.968,0,0,1,.1,1c0,0.944-.25,2.127.3,2.494a4.571,4.571,0,0,0,2.2.2v-0.1h0.3v-0.1a10.8,10.8,0,0,1,2.9-.1h1.1v0.1h0.5v0.1h0.4v0.1h0.8v0.1l0.7,0.1v0.1h0.2v0.1h0.3v0.1h0.2v0.1h0.3c0.034,0.066.067,0.133,0.1,0.2h0.2v0.1h0.2c0.033,0.067.067,0.133,0.1,0.2h0.2v0.1l0.4,0.3c1.485,2.086,1.3,5.608,1.3,9.18v4.49h-0.1v0.6h-0.1c-0.033.133-.067,0.266-0.1,0.4l-0.7.5h-1.3v-0.1h-0.2v-0.1ZM215.4,132.911l0.3-.1v-0.1H216v-0.1h0.3l0.3-.4h0.1a0.967,0.967,0,0,1,.2-0.4V128.82l0.2-.1v-0.2c0.31-.08.519-0.31,0.8-0.4a3.527,3.527,0,0,1,1.4.1,1.405,1.405,0,0,1,.5.9,1.945,1.945,0,0,1,.1,1,15.488,15.488,0,0,0,.1,2.3l0.3,0.1a1.679,1.679,0,0,0,.9.1c0.748,0,1.48.076,2.1,0.1a1.558,1.558,0,0,1,.5,1,3.684,3.684,0,0,1-.5.5c-0.367.36-2.542,0.186-3.2,0.3-0.033.1-.067,0.2-0.1,0.3a1.675,1.675,0,0,0-.1.9v11.076a6.424,6.424,0,0,1,.3.8l0.5,0.4v0.1h0.2v0.1h0.2v0.1h0.3v0.1h1.6a0.226,0.226,0,0,0,.2.1,1.551,1.551,0,0,1,.1.6c-0.113.114-.039,0-0.1,0.2l-0.3.1v0.1h-0.2v0.1h-0.8v0.1l-1.2.2v-0.1H220v-0.1h-0.4v-0.1h-0.8v-0.1l-0.4-.1v-0.1h-0.2c-0.067-.1-0.133-0.2-0.2-0.3l-0.3-.1v-0.2l-0.3-.2c-0.634-.958-0.5-2.7-0.5-4.29,0-3.052.158-6.4-.1-9.28l-0.5-.4v-0.1H216a1.112,1.112,0,0,1-.8-1.2A0.3,0.3,0,0,0,215.4,132.911Zm112.347-.4a13.705,13.705,0,0,0,2,.1h0.9v0.1l0.5,0.1a1.3,1.3,0,0,1,.3,1,4.407,4.407,0,0,1-.8.6h-0.9a12.912,12.912,0,0,0-2,.1,26.171,26.171,0,0,0-.2,4.789v7.384a10.166,10.166,0,0,1,.4,1l0.3,0.2v0.1a5.734,5.734,0,0,0,.8.3v0.1h1.7a1.286,1.286,0,0,1,.2.8,2.17,2.17,0,0,0-.3.3l-1.1.1v0.1l-1.2.2v-0.1h-0.6v-0.1h-0.4v-0.1h-0.9v-0.1l-0.6-.2-0.5-.6-0.2-.1v-0.2l-0.2-.1c-0.514-.949-0.4-2.727-0.4-4.191v-8.981h-0.1c-0.033-.133-0.067-0.266-0.1-0.4a0.873,0.873,0,0,1-.2-0.2h-0.2v-0.1h-0.3v-0.1a0.854,0.854,0,0,1-.7-0.6h-0.1v-0.4l0.5-.6h0.3v-0.1c0.408-.173.576-0.043,0.7-0.5h0.1v-0.2h0.1v-1c0-.775.075-1.55,0.1-2.195l0.3-.2v-0.1h0.2l0.1-.2a4.246,4.246,0,0,1,1.5-.1v0.1l0.4,0.1a6.784,6.784,0,0,1,.4.6v3.193h0.1C327.677,132.246,327.71,132.379,327.744,132.512Zm-289.762-.1c1.712-.011,4.248-0.224,5.6.2h1.3v0.1h0.4v0.1h0.4v0.1h0.4v0.1l0.6,0.2v0.1h0.2v0.1l0.4,0.1,0.2,0.3a6.3,6.3,0,0,1,1,1l0.2,0.6h0.1v0.2h0.1v0.3h0.1v0.5h0.1v0.3h0.1V138a14.888,14.888,0,0,1,.2,3.492v6.087a3.514,3.514,0,0,0-.2.9l-0.5.4v0.1h-0.2l-0.1.2-0.5.1v0.1h-0.4v0.1h-0.3v0.1h-1c-1.515.446-4.218,0.2-6.1,0.2h-2.9v-0.1h-0.4v-0.1h-0.8v-0.1h-0.3v-0.1h-0.3v-0.1h-0.3v-0.1h-0.3l-0.1-.2h-0.2l-0.2-.3h-0.2l-0.3-.4h-0.1v-0.2l-0.3-.2-0.3-1.1h-0.1v-0.6h-0.1v-0.3h-0.1v-0.4h-0.1q0.05-1.148.1-2.3h0.1v-0.3h0.1v-0.8h0.1l0.3-1,0.9-.8,0.3-.4,0.9-.2v-0.1l0.8-.1v-0.1h6.6v0.1h0.3v0.1h2.8a2.169,2.169,0,0,1,.4-0.5,6.793,6.793,0,0,0-.6-3.094l-0.2-.1v-0.2l-0.5-.6h-0.2l-0.1-.2h-0.2l-0.1-.2h-0.3v-0.1l-0.6-.1v-0.1h-1.4v-0.1a11.555,11.555,0,0,0-2.9.1h-2.4l-0.5.1v0.1h-0.8c-0.454.138-1.251,0.529-1.7,0.1h-0.1v-0.8c0.114-.114.04,0,0.1-0.2l0.4-.3v-0.1h0.2v-0.1l0.6-.2v-0.1h0.4v-0.1h0.3v-0.1h0.5v-0.1h1.3v-0.1h0.4v-0.1Zm77.963,0a18.73,18.73,0,0,1,4.9.2h1.2v0.1l1.4,0.3,0.1,0.2h0.2c0.033,0.067.067,0.133,0.1,0.2h0.1v0.2l0.2,0.1v0.7a2.084,2.084,0,0,1-1.2.2c-0.395-.39-1.16-0.012-1.8-0.2v-0.1h-0.4v-0.1h-0.4v-0.1h-3v0.1h-0.3v0.1l-1.2.1v0.1h-0.3v0.1l-0.6.1v0.1l-0.4.1v0.1h-0.2l-0.3.4h-0.2c-0.034.066-.067,0.133-0.1,0.2l-0.5.4v0.2l-0.2.1v0.2h-0.1l-0.2.6h-0.1v0.3h-0.1a9.485,9.485,0,0,0-.3,1.9h-0.1v0.1h0.1v3.193h-0.1v0.4h0.1v0.5h0.1v0.5h0.1v0.5h0.1v0.3h0.1v0.3h0.1v0.3h0.1v0.2l0.2,0.1c0.033,0.133.067,0.266,0.1,0.4l0.2,0.1v0.2h0.1l0.3,0.4h0.2c0.066,0.1.133,0.2,0.2,0.3h0.2c0.034,0.067.067,0.133,0.1,0.2l1.8,0.6h1.1v0.1h0.3v0.1h2.8v-0.1h0.3v-0.1h1.5v-0.1h0.4v-0.1h0.4v-0.1a1.386,1.386,0,0,1,1.1.2,0.571,0.571,0,0,1,.2.5,0.943,0.943,0,0,0-.2.4l-0.6.5h-0.2v0.1h-0.3v0.1h-0.2v0.1h-0.3v0.1h-0.9v0.1h-0.4v0.1h-0.5v0.1a0.262,0.262,0,0,1-.3-0.1h-1.9a15.244,15.244,0,0,1-4.7-.4l-0.8-.1v-0.1h-0.2v-0.1h-0.3v-0.1l-0.6-.2v-0.1l-0.4-.1-0.2-.3h-0.2l-0.2-.3-0.5-.4v-0.2c-0.066-.034-0.133-0.067-0.2-0.1-0.033-.133-0.066-0.266-0.1-0.4h-0.1v-0.2h-0.1q-0.1-.3-0.2-0.6h-0.1v-0.3h-0.1v-0.3h-0.1q-0.051-.45-0.1-0.9h-0.1v-1.4h-0.1v-0.6h-0.1v-0.4h-0.1a9.623,9.623,0,0,1,.2-2.894h0.1v-1.5h0.1q0.05-.449.1-0.9h0.1c0.033-.2.066-0.4,0.1-0.6h0.1c0.033-.167.066-0.333,0.1-0.5h0.1l0.1-.4h0.1v-0.2h0.1c0.034-.1.067-0.2,0.1-0.3l0.2-.1v-0.2l0.2-.1c0.133-.167.267-0.333,0.4-0.5h0.2c0.033-.067.066-0.133,0.1-0.2h0.2c0.033-.066.066-0.133,0.1-0.2h0.2c0.033-.067.066-0.134,0.1-0.2h0.2v-0.1h0.2v-0.1h0.3v-0.1h0.3v-0.1h0.3v-0.1l0.8-.1v-0.1h0.5v-0.1C115.175,132.459,115.587,132.758,115.945,132.412ZM259.676,140.2c0.033-.166.067-0.332,0.1-0.5h0.1v-1.2a4.593,4.593,0,0,0-.7-2.395v-0.2c-0.066-.034-0.133-0.067-0.2-0.1v-0.2l-0.4-.3-0.3-.4h-0.2v-0.1h-0.2v-0.1h-0.3v-0.1h-0.2v-0.1h-0.3v-0.1h-1.1v-0.1a4.785,4.785,0,0,0-1.9.1h-1.4v0.1h-0.2v0.1l-0.7.1v0.1h-0.2l-0.1.2h-0.2l-0.3.4-0.8.7v0.2h-0.1c-0.034.133-.067,0.266-0.1,0.4h-0.1q-0.051.3-.1,0.6h-0.1v0.4h-0.1v0.5h-0.1v0.3h-0.1v0.3h-0.1v4.89h0.1v0.3h0.1v0.3h0.1v0.5h0.1v0.4h0.1v0.3h0.1v0.3l0.2,0.1c0.033,0.1.066,0.2,0.1,0.3h0.1v0.2l0.5,0.6,0.4,0.1v0.1h0.2c0.033,0.067.067,0.133,0.1,0.2a5.774,5.774,0,0,0,.8.2v0.1h0.3v0.1a17.217,17.217,0,0,0,2.3.1,4.643,4.643,0,0,0,1.7.1v-0.1h3v-0.1h0.3v-0.1h0.6v-0.1a4.445,4.445,0,0,1,1.7.1,1.343,1.343,0,0,1,.1.7h-0.1a1.808,1.808,0,0,1-1.2,1h-0.3v0.1h-0.3v0.1h-1v0.1h-0.4v0.1h-0.6v0.1l-0.3-.1h-2.4a16.178,16.178,0,0,1-4-.2h-1v-0.1h-0.2v-0.1h-0.4v-0.1l-0.6-.1v-0.1l-0.4-.1v-0.1l-0.4-.1c-0.033-.067-0.066-0.133-0.1-0.2h-0.2l-0.3-.4-0.5-.4v-0.2l-0.2-.1c-0.033-.133-0.067-0.266-0.1-0.4h-0.1c-0.067-.2-0.133-0.4-0.2-0.6h-0.1v-0.3h-0.1v-0.3h-0.1q-0.1-.549-0.2-1.1h-0.1v-0.5h-0.1v-1.6h-0.1v-0.6h-0.1a4.077,4.077,0,0,1,.2-2v-1.5h0.1v-0.5h0.1v-0.2h0.1q0.051-.5.1-1h0.1v-0.3h0.1v-0.2h0.1c0.033-.2.067-0.4,0.1-0.6l0.2-.1v-0.2l0.2-.1v-0.2l0.2-.1v-0.2a1.3,1.3,0,0,0,.5-0.6,1.121,1.121,0,0,0,.5-0.3v-0.1l0.4-.1,0.2-.3h0.2v-0.1l0.4-.1v-0.1l0.6-.1v-0.1h0.3v-0.1h0.5v-0.1h0.3v-0.1h0.5v-0.1h1a11.107,11.107,0,0,1,7.5,1.1l0.3,0.4,0.7,0.6v0.2l0.2,0.1v0.2h0.1c0.033,0.133.067,0.266,0.1,0.4h0.1c0.033,0.2.067,0.4,0.1,0.6h0.1v0.3h0.1v0.3h0.1v0.3h0.1v1.5s0.082,0.015.1,0.2c0.08,0.854.271,2.463-.5,2.694a10.871,10.871,0,0,1-2.8.1h-5.2a19.658,19.658,0,0,1-3.1-.1,1.561,1.561,0,0,1-.1-0.6l0.3-.2v-0.1l0.5-.1v-0.1h2.3A31.386,31.386,0,0,0,259.676,140.2Zm40.781-5.687a2.74,2.74,0,0,1-1.2.1v-0.1h-0.3v-0.1h-1.5v-0.1h-0.4v-0.1h-0.3v-0.1h-3.1v0.1h-0.2v0.1h-0.4v0.1h-0.8v0.1h-0.3v0.1h-0.3v0.1h-0.3v0.1l-0.4.1v0.1h-0.2l-0.3.4h-0.2l-0.4.5-0.2.1v0.2l-0.3.2c-0.067.2-.133,0.4-0.2,0.6h-0.1v0.3a11.035,11.035,0,0,0-.5,4.19v1.6h0.1v0.4h0.1v0.7h0.1v0.4h0.1v0.3h0.1v0.3h0.1c0.033,0.133.067,0.266,0.1,0.4h0.1v0.2l0.2,0.1v0.2c0.066,0.034.133,0.067,0.2,0.1v0.2l0.2,0.1,0.3,0.4h0.2c0.034,0.066.067,0.133,0.1,0.2l0.3,0.1v0.1l1.8,0.6h1.1v0.1h0.3v0.1h2.7v-0.1h0.4v-0.1h1.5v-0.1a3.716,3.716,0,0,1,1.8-.1,1.319,1.319,0,0,0,.3.4c-0.066.2-.133,0.4-0.2,0.6l-0.4.3v0.1h-0.2v0.1h-0.2v0.1h-0.3v0.1h-0.3v0.1h-0.3v0.1h-0.8v0.1l-1.3.2v-0.1h-4.9v-0.1h-0.4v-0.1h-1v-0.1h-0.2v-0.1h-0.4v-0.1l-0.7-.1v-0.1h-0.2v-0.1h-0.2v-0.1h-0.2v-0.1h-0.2v-0.1h-0.2v-0.1h-0.2l-0.2-.3h-0.2l-0.5-.6-0.2-.1v-0.2l-0.2-.1v-0.2l-0.2-.1c-0.066-.2-0.133-0.4-0.2-0.6h-0.1v-0.2h-0.1v-0.3h-0.1v-0.3h-0.1c-0.034-.3-0.067-0.6-0.1-0.9h-0.1q-0.051-1-.1-2h-0.1v-0.4a3.309,3.309,0,0,1,0-2.2v-0.4h0.1v-1.4h0.1v-0.5h0.1v-0.5h0.1v-0.5h0.1v-0.3h0.1v-0.3h0.1V136h0.1v-0.3h0.1v-0.2l0.2-.1v-0.2l0.2-.1v-0.2l0.2-.1v-0.2l0.3-.2c0.133-.166.266-0.333,0.4-0.5l0.4-.1c0.067-.1.134-0.2,0.2-0.3h0.2v-0.1l0.4-.1v-0.1l0.6-.1v-0.1h0.3v-0.1h0.5v-0.1h0.3v-0.1h0.5v-0.1h1v-0.1h0.3v-0.1h4.6v0.1h0.3v0.1h1.1c0.451,0.131,1.009.305,1.5,0.4C300.26,133.671,300.659,133.43,300.457,134.508Zm69.167,0.2-0.4.1v0.1a2.369,2.369,0,0,1-1.2-.3h-0.7v-0.1h-0.3v-0.1h-2.3a10.581,10.581,0,0,0-2.3-.1l-3.8.1v0.1h-0.2v0.1h-0.4v0.1l-0.4.1v0.1h-0.2c-0.033.066-.066,0.133-0.1,0.2h-0.2v0.1l-0.3.2a3.886,3.886,0,0,0-.5,2.893h0.1q0.1,0.3.2,0.6l0.5,0.4,0.1,0.2h0.2v0.1a1.214,1.214,0,0,1,.3.2c1.413,0.052,2.877.2,4.4,0.2a14.294,14.294,0,0,1,3.2.1h1.5v0.1h0.3v0.1h0.4v0.1a4.835,4.835,0,0,1,.8.2c0.034,0.067.067,0.133,0.1,0.2h0.2l0.1,0.2,0.6,0.5v0.2l0.2,0.1c0.033,0.133.066,0.266,0.1,0.4h0.1l0.1,0.8h0.1v0.4h0.1v2.1h-0.1v0.3h-0.1l-0.1.7h-0.1v0.2h-0.1v0.3l-0.2.1c-0.034.133-.067,0.266-0.1,0.4l-0.4.3c-0.133.166-.267,0.332-0.4,0.5h-0.2c-0.033.066-.066,0.133-0.1,0.2l-0.4.1v0.1l-0.4.1v0.1l-0.5.1v0.1h-0.3v0.1h-0.2v0.1l-1,.1v0.1h-0.3v0.1h-1.7v0.1h-0.4v0.1h-0.6v0.1l-1.6-.1h-2.7v-0.1h-0.4v-0.1h-1.6v-0.1h-0.3v-0.1l-1.1-.2v-0.1h-0.2a2.953,2.953,0,0,0-.7-0.4c-0.033-.133-0.066-0.266-0.1-0.4h-0.1q0.051-.5.1-1a1.95,1.95,0,0,1,1.2.1v0.1h0.3v0.1h0.7v0.1h0.4v0.1h0.4v0.1h1.9v0.1h0.4v0.1h3v-0.1h0.4v-0.1h1.3l1.8-.6c0.033-.067.066-0.133,0.1-0.2h0.2q0.2-.249.4-0.5l0.4-.3a4.247,4.247,0,0,0,.5-2.4h-0.1l-0.3-1.1-0.4-.3v-0.1h-0.2v-0.1l-0.6-.2v-0.1h-0.3v-0.1h-0.5v-0.1l-2.7.1a19.874,19.874,0,0,1-5-.3h-1v-0.1h-0.2v-0.1h-0.3v-0.1l-0.4-.1v-0.1h-0.2c-0.034-.066-0.067-0.133-0.1-0.2h-0.2l-0.1-.2-0.4-.3v-0.2l-0.2-.1v-0.2h-0.1v-0.2h-0.1v-0.3h-0.1v-0.5a2.951,2.951,0,0,1-.3-1.8h0.1v-0.5h0.1v-0.3h0.1v-0.5h0.1v-0.3h0.1v-0.3a2.825,2.825,0,0,1,.7-0.8l0.6-.7h0.2c0.034-.066.067-0.133,0.1-0.2l0.6-.2v-0.1h0.2v-0.1h0.3v-0.1h0.2v-0.1h0.7v-0.1h0.4v-0.1h0.4v-0.1h1.5v-0.1h0.4v-0.1h1.7a15.689,15.689,0,0,1,3.8.2h1.4c1.113,0.326,2.563.39,2.7,1.7h0.1A2.079,2.079,0,0,0,369.624,134.707ZM76.264,149.375a4.029,4.029,0,0,1-1.9.2v-0.1l-0.4-.1-0.5-.7v-4.291c0-3.457-.206-7.3.1-10.577a8.088,8.088,0,0,1,.8-0.6l0.8-.1v-0.1h0.3v-0.1h0.8v-0.1h0.3v-0.1h0.5v-0.1h2.1v-0.1a6.973,6.973,0,0,1,2.1.1,9.327,9.327,0,0,1,2.4.2v0.1l0.8,0.1v0.1h0.3v0.1h0.2v0.1h0.2l0.1,0.2h0.2l0.3,0.4,0.4,0.3v0.2h0.1v0.2h0.1v0.3h0.1v0.2h0.1a2.917,2.917,0,0,1,0,1.5l-0.3.1c-0.437.427-1.605,0.1-2.1,0-0.1-.195-0.314-0.407-0.4-0.6l-0.1-.6-0.7-.8h-0.2v-0.1l-0.4-.1v-0.1h-0.6v-0.1h-0.5v-0.1h-0.3v-0.1a6.609,6.609,0,0,0-2.4.2v0.1h-0.8a6.5,6.5,0,0,1-.8.3l-0.5.8v13.371h-0.1Zm114.445-16.564c0.059,0.284.225,0.55,0.3,0.8v9.379q0.05,2.046.1,4.091a6.082,6.082,0,0,1,.3.7,6.984,6.984,0,0,0,1,.6c0.771,0.252,1.236-.373,1.6.4a0.231,0.231,0,0,1,.1.3h-0.1c-0.324.718-.325,0.284-1,0.5v0.1h-0.3v0.1h-0.5v0.1a0.6,0.6,0,0,1-.4-0.1h-1.3v-0.1l-0.7-.1v-0.1l-0.4-.1v-0.1h-0.2c-0.034-.066-0.067-0.133-0.1-0.2l-0.3-.1c-0.941-1.181-.9-3.257-0.9-5.388V133.41h0.1v-0.3a1.2,1.2,0,0,1,.8-0.4C189.208,132.34,190.367,132.736,190.709,132.811ZM38.382,140.594v0.1l-0.7.1v0.1h-0.3v0.1h-0.2l-0.1.2h-0.2l-0.3.4h-0.1v0.2l-0.2.1v0.2h-0.1v0.2h-0.1v0.3h-0.1v1.5h-0.1l0.1,0.9v1.2h0.1v0.2h0.1v0.3l0.6,0.9h0.2l0.1,0.2,0.4,0.1v0.1h0.2v0.1h0.5v0.1h0.3v0.1h0.2v0.1h5.4v-0.1h0.3v-0.1h0.3v-0.1h0.6v-0.1h0.3l0.7-.6a3.776,3.776,0,0,0,.2-1.8v-3.692h-0.1l-0.1-.5-0.3-.2v-0.1h-0.2v-0.1l-1.2-.2v0.1h-0.4v-0.1h-0.6v-0.1h-0.3v-0.1h-4.9Z" transform="translate(-7.875 -15.094)"/>
</svg>
